<svg height="64" viewBox="0 0 64 64" width="64" xmlns="http://www.w3.org/2000/svg"><g fill="none" stroke="#202020" stroke-linecap="round" stroke-linejoin="round" stroke-width="2"><circle cx="32.7" cy="33" r="19"/><circle cx="32.7" cy="33" r="11"/><path d="m61.7 34.2v13.8a2 2 0 0 1 -2 2 2 2 0 0 1 -2-2v-13.9m-51-22.1v9.5"/><path d="m61.7 34.2v-22.2a6.3 6.3 0 0 0 -6.3 6.3v12.7a3.2 3.2 0 0 0 3.2 3.2zm-50.5-9.5-.7-12.7h-7.6l-.6 12.7a3.5 3.5 0 0 0 2.4 3.5v19.8a2 2 0 1 0 4 0v-19.9a3.5 3.5 0 0 0 2.5-3.4z"/></g></svg>