<svg height="64" viewBox="0 0 64 64" width="64" xmlns="http://www.w3.org/2000/svg"><g fill="none" stroke="#202020" stroke-linecap="round" stroke-linejoin="round" stroke-width="2"><path d="m32 16v20"/><rect height="18" rx="2" width="60" x="2" y="36"/><circle cx="11" cy="45" r="2"/><circle cx="21" cy="45" r="2"/><circle cx="31" cy="45" r="2"/><path d="m8 54v4m48-4v4m-30.9-38a8 8 0 0 1 0-8m13.8 0a8 8 0 0 1 0 8m-21.2 3.1a16 16 0 0 1 0-14.2m28.6 0a16 16 0 0 1 0 14.2m-36 3.1a23.9 23.9 0 0 1 -2.3-10.2 23 23 0 0 1 2-10m44 0a23 23 0 0 1 2 10 23.9 23.9 0 0 1 -2.3 10.2"/></g></svg>