<svg height="64" viewBox="0 0 1200 1200" width="64" xmlns="http://www.w3.org/2000/svg"><path d="m317.52 434.52c33.137-.125 64.863-13.402 88.219-36.906 23.355-23.504 36.426-55.316 36.34-88.453-.082031-33.133-13.316-64.879-36.793-88.266-23.473-23.383-55.27-36.496-88.406-36.453-33.133.042969-64.898 13.234-88.312 36.68-23.414 23.445-36.566 55.223-36.566 88.359.03125 33.234 13.281 65.094 36.828 88.551s55.457 36.586 88.691 36.488zm0-214.08c23.586.125 46.16 9.6055 62.762 26.359 16.605 16.754 25.883 39.41 25.797 62.996-.082031 23.59-9.5234 46.18-26.246 62.812-16.723 16.633-39.363 25.953-62.949 25.91-23.59-.042969-46.195-9.4414-62.859-26.137-16.664-16.691-26.023-39.316-26.023-62.902 0-23.699 9.4453-46.418 26.25-63.133 16.801-16.711 39.57-26.035 63.27-25.906z"/><path d="m885.72 434.52c33.164 0 64.969-13.172 88.418-36.621 23.449-23.453 36.625-55.254 36.625-88.418s-13.176-64.969-36.625-88.418-55.254-36.621-88.418-36.621c-33.16 0-64.965 13.172-88.414 36.621s-36.625 55.254-36.625 88.418c.0625 33.145 13.258 64.91 36.695 88.348 23.434 23.434 55.203 36.629 88.344 36.691zm0-214.08c23.617 0 46.266 9.3789 62.961 26.078 16.699 16.699 26.082 39.344 26.082 62.961 0 23.613-9.3828 46.262-26.082 62.961-16.695 16.699-39.344 26.078-62.961 26.078-23.613 0-46.262-9.3789-62.961-26.078-16.695-16.699-26.078-39.348-26.078-62.961.03125-23.605 9.4219-46.234 26.113-62.926 16.691-16.691 39.32-26.082 62.926-26.113z"/><path d="m1082.8 685.44c.61719-1.7773.94141-3.6406.95703-5.5195-.12109-17.383-1.9688-34.707-5.5195-51.723 14.141-5.5781 26.273-15.277 34.832-27.836 8.5586-12.562 13.148-27.402 13.168-42.602v-440.16c-.03125-20.043-8.0078-39.254-22.176-53.422-14.172-14.172-33.383-22.148-53.422-22.18h-901.2c-20.039.03125-39.25 8.0078-53.422 22.18-14.168 14.168-22.145 33.379-22.176 53.422v440.16c-.074219 15.82 4.8047 31.266 13.949 44.18 9.1484 12.91 22.102 22.637 37.051 27.82-3.2305 16.523-4.8359 33.32-4.8008 50.16-.11719 1.1953-.11719 2.4023 0 3.5977-37.199 27.602-58.199 58.922-58.199 92.52v94.441c0 84 121.44 145.44 280.68 177.24-8.1562 30.133-12.863 61.09-14.039 92.281 0 4.7734 1.8945 9.3516 5.2695 12.727 3.375 3.3789 7.957 5.2734 12.73 5.2734h507.12c4.7734 0 9.3555-1.8945 12.73-5.2734 3.375-3.375 5.2695-7.9531 5.2695-12.727-1.1367-31.188-5.8047-62.145-13.918-92.281 159.24-31.801 280.68-93.238 280.68-177.24v-94.441c0-32.758-19.922-63.48-55.559-90.598zm-36-24c-67.199-37.199-166.92-65.281-285.24-78.719l-.003907-.003906c-1.8008-5.8867-3.9648-11.656-6.4805-17.277 22.801-37.801 62.398-70.441 130.92-70.441 131.28 0 156 120 160.92 166.44zm-936.96-103.68v-440.16c0-10.504 4.1719-20.578 11.598-28.004 7.4258-7.4258 17.5-11.598 28-11.598h901.2c10.5 0 20.574 4.1719 28 11.598 7.4258 7.4258 11.598 17.5 11.598 28.004v440.16c-.035157 7.2734-2.0664 14.402-5.875 20.602-3.8086 6.2031-9.25 11.238-15.723 14.559-23.16-66.719-76.32-133.44-182.88-133.44-72.84 0-120.6 31.078-151.08 72h-.003906c-20.754-27.805-49.605-48.5-82.594-59.25-32.988-10.746-68.492-11.016-101.64-.77344-33.148 10.242-62.312 30.5-83.484 57.984-30.48-39.961-78-70.078-149.4-70.078-107.4 0-160.56 67.68-183.48 134.88l-.003907-.003907c-7.1719-3.0312-13.293-8.1094-17.602-14.594-4.3086-6.4883-6.6172-14.098-6.6367-21.883zm622.92 75.121-.003906-.003906c0 35.199-13.98 68.957-38.871 93.848s-58.648 38.875-93.848 38.875-68.957-13.984-93.848-38.875-38.871-58.648-38.871-93.848c0-35.199 13.98-68.957 38.871-93.848 24.891-24.887 58.648-38.871 93.848-38.871 35.18.0625 68.902 14.066 93.777 38.941 24.875 24.879 38.879 58.598 38.941 93.777zm-415.2-137.4c66.719 0 105.96 30.961 129 67.559-3.0234 6.5508-5.6289 13.281-7.8008 20.16-116.4 13.32-214.92 40.801-282 76.801 5.1602-48 30.961-164.52 160.8-164.52zm-219.84 375v-19.441c13.988 13.453 29.539 25.176 46.32 34.922 55.078 32.281 133.08 57.238 224.16 72.961l8.8789 1.4414v-.003906c-9.4648 16.73-17.492 34.234-24 52.32-143.4-27.84-255.36-78.84-255.36-142.2zm267.6 252c4.6797-60 35.398-249.24 234.72-249.24 199.32-.003907 230.04 188.28 234.72 248.76zm737.04-252c0 63.359-111.96 114.36-255.48 142.2-6.5039-18.086-14.535-35.59-24-52.32 94.801-15.602 176.16-41.039 233.04-74.398 16.91-9.7188 32.582-21.445 46.68-34.922zm-13.801-57.961c-2.8398 3.832-5.9688 7.4453-9.3594 10.801-12.465 12.32-26.508 22.934-41.762 31.559-51.238 30.121-126.72 53.879-214.8 68.762-7.4414 1.3203-15 2.3984-22.559 3.6016-39.961-51.242-102.36-90.48-200.04-90.48s-160.08 39.238-200.04 90.477c-97.68-14.641-181.68-39.719-237.36-72-19.688-10.832-37.09-25.383-51.242-42.84-8.3906-10.168-13.199-22.82-13.68-36 0-74.641 154.92-132 334.08-154.8v12l.003907.003906c0 44.746 17.773 87.66 49.414 119.3s74.559 49.418 119.3 49.418c44.746 0 87.66-17.777 119.3-49.418 31.645-31.641 49.418-74.555 49.418-119.3v-12c179.16 22.801 334.08 80.16 334.08 154.8l.003906-.003906c-.75781 13.352-5.9531 26.062-14.762 36.121z"/></svg>