<svg height="1200pt" viewBox="0 0 1200 1200" width="1200pt" xmlns="http://www.w3.org/2000/svg"><path d="m1064.1 283.59c-7.7617 0-14.062 6.3008-14.062 14.062v350.4c0 12.918-10.52 23.438-23.438 23.438h-110.16v-3.5234c0-28.445-23.117-51.562-51.562-51.562h-50.398v-70.312h50.398c28.445 0 51.562-23.117 51.562-51.562v-403.12c0-28.445-23.117-51.562-51.562-51.562h-529.69c-28.445 0-51.562 23.117-51.562 51.562v403.12c0 28.445 23.117 51.562 51.562 51.562h50.398v70.312h-50.398c-28.445 0-51.562 23.117-51.562 51.562v3.5234h-110.16c-12.918 0-23.438-10.52-23.438-23.438v-350.4c0-7.7617-6.3008-14.062-14.062-14.062s-14.062 6.3008-14.062 14.062v350.4c0 28.445 23.117 51.562 51.562 51.562h110.16v3.5078c0 28.445 23.117 51.562 51.562 51.562h250.78v217.97h-250.78c-28.445 0-51.562 23.117-51.562 51.562v121.88c0 7.7617 6.3008 14.062 14.062 14.062s14.062-6.3008 14.062-14.062v-121.88c0-12.918 10.52-23.438 23.438-23.438h250.78v145.31c0 7.7617 6.3008 14.062 14.062 14.062s14.062-6.3008 14.062-14.062v-145.31h250.78c12.918 0 23.438 10.52 23.438 23.438v121.88c0 7.7617 6.3008 14.062 14.062 14.062s14.062-6.3008 14.062-14.062v-121.88c0-28.445-23.117-51.562-51.562-51.562h-250.78v-217.97h250.78c28.445 0 51.562-23.117 51.562-51.562v-3.5234h110.16c28.445 0 51.562-23.117 51.562-51.562v-350.38c0-7.7617-6.3008-14.062-14.062-14.062zm-752.34 210.94v-403.12c0-12.918 10.52-23.438 23.438-23.438h529.69c12.918 0 23.438 10.52 23.438 23.438v403.12c0 12.918-10.52 23.438-23.438 23.438h-529.69c-12.918 0-23.438-10.52-23.438-23.438zm101.96 51.562h372.66v70.312h-372.66zm474.6 157.03c0 12.918-10.52 23.438-23.438 23.438h-529.69c-12.918 0-23.438-10.52-23.438-23.438v-35.156c0-12.918 10.52-23.438 23.438-23.438h529.7c12.918 0 23.438 10.52 23.438 23.438l.003906 35.156z"/></svg>