<svg height="64" viewBox="0 0 1200 1200" stroke="2" width="64" xmlns="http://www.w3.org/2000/svg"><path d="m408.44 1072c-11.672 0-22.863 4.6367-31.113 12.887-8.2539 8.2539-12.887 19.445-12.887 31.113s4.6328 22.859 12.887 31.113c8.25 8.25 19.441 12.887 31.113 12.887 11.668 0 22.859-4.6367 31.109-12.887 8.2539-8.2539 12.891-19.445 12.891-31.113s-4.6367-22.859-12.891-31.113c-8.25-8.25-19.441-12.887-31.109-12.887z"/><path d="m747.44 1116c0 11.668 4.6328 22.859 12.887 31.113 8.25 8.25 19.441 12.887 31.113 12.887 11.668 0 22.859-4.6367 31.109-12.887 8.2539-8.2539 12.891-19.445 12.891-31.113s-4.6367-22.859-12.891-31.113c-8.25-8.25-19.441-12.887-31.109-12.887-11.672 0-22.863 4.6367-31.113 12.887-8.2539 8.2539-12.887 19.445-12.887 31.113z"/><path d="m556 1116c0 11.668 4.6367 22.859 12.887 31.113 8.2539 8.25 19.445 12.887 31.113 12.887s22.859-4.6367 31.113-12.887c8.25-8.2539 12.887-19.445 12.887-31.113s-4.6367-22.859-12.887-31.113c-8.2539-8.25-19.445-12.887-31.113-12.887s-22.859 4.6367-31.113 12.887c-8.25 8.2539-12.887 19.445-12.887 31.113z"/><path d="m170.92 402.68c-7.957 0-15.59 3.1602-21.215 8.7852-5.625 5.6289-8.7852 13.258-8.7852 21.215v152c.050781 23.371 7.8398 46.066 22.145 64.547 14.305 18.48 34.324 31.703 56.934 37.613.10547 29.309 11.812 57.387 32.559 78.09 20.75 20.703 48.852 32.348 78.16 32.391h239.28v87.719c-36.098 1.1719-71.496 10.238-103.71 26.57-32.211 16.332-60.449 39.523-82.73 67.949-4.6445 6.6016-6.4336 14.793-4.9648 22.73 1.4727 7.9336 6.0742 14.941 12.777 19.441 6.6992 4.5 14.93 6.1094 22.832 4.4648 7.8984-1.6406 14.805-6.3984 19.156-13.195 16.766-20.23 37.59-36.715 61.129-48.387 23.535-11.672 49.262-18.273 75.512-19.375v71.441c0 10.719 5.7188 20.621 15 25.98s20.719 5.3594 30 0 15-15.262 15-25.98v-71.441c26.25 1.1016 51.977 7.7031 75.512 19.375 23.539 11.672 44.363 28.156 61.129 48.387 4.3516 6.7969 11.258 11.555 19.156 13.195 7.9023 1.6445 16.133.035157 22.832-4.4648 6.7031-4.5 11.305-11.508 12.777-19.441 1.4688-7.9375-.32031-16.129-4.9648-22.73-22.281-28.426-50.52-51.617-82.73-67.949-32.215-16.332-67.613-25.398-103.71-26.57v-87.719h239.44c29.281-.085937 57.34-11.75 78.055-32.449 20.715-20.695 32.398-48.75 32.504-78.031 22.555-5.9297 42.52-19.145 56.789-37.59 14.273-18.445 22.051-41.09 22.133-64.41v-152c0-10.719-5.7188-20.621-15-25.98-9.2852-5.3594-20.719-5.3594-30 0-9.2852 5.3594-15 15.262-15 25.98v152c-.16016 14.875-7.6445 28.719-20 37-3.0273-25.148-14.621-48.484-32.832-66.086-18.215-17.602-41.934-28.391-67.168-30.555v-330c-.054687-49.094-19.578-96.164-54.289-130.88-34.711-34.719-81.777-54.254-130.87-54.316h-193.76c-49.102.054688-96.176 19.582-130.9 54.301-34.719 34.723-54.25 81.797-54.301 130.9v330.6c-24.027 3.4453-46.246 14.719-63.211 32.074-16.965 17.359-27.734 39.828-30.629 63.926-12.359-8.2812-19.844-22.125-20-37v-152c.03125-7.9844-3.1211-15.652-8.7578-21.305-5.6406-5.6562-13.301-8.8281-21.281-8.8164zm204-207.48c.03125-33.172 13.215-64.98 36.66-88.453 23.449-23.469 55.242-36.684 88.418-36.746h193.6c33.195.03125 65.02 13.234 88.492 36.707 23.473 23.473 36.676 55.297 36.707 88.492v329h-443.84zm-94.922 439.76c.019531-13.457 5.375-26.355 14.891-35.871s22.414-14.867 35.871-14.891h538.68c13.453.023437 26.352 5.375 35.867 14.891s14.871 22.414 14.891 35.871v51.602-.003906c-.019531 13.457-5.375 26.355-14.891 35.871-9.5156 9.5156-22.414 14.871-35.867 14.891h-538.88c-13.418-.074218-26.266-5.4531-35.738-14.961-9.4727-9.5078-14.801-22.379-14.82-35.801z"/></svg>